<?xml version="1.0" encoding="UTF-8" standalone="no"?>
<!-- Created with Inkscape (http://www.inkscape.org/) -->

<svg
   xmlns:dc="http://purl.org/dc/elements/1.1/"
   xmlns:cc="http://creativecommons.org/ns#"
   xmlns:rdf="http://www.w3.org/1999/02/22-rdf-syntax-ns#"
   xmlns:svg="http://www.w3.org/2000/svg"
   xmlns="http://www.w3.org/2000/svg"
   xmlns:sodipodi="http://sodipodi.sourceforge.net/DTD/sodipodi-0.dtd"
   xmlns:inkscape="http://www.inkscape.org/namespaces/inkscape"
   width="185"
   height="60"
   viewBox="0 0 48.947915 15.875"
   version="1.1"
   id="svg8"
   inkscape:version="0.92.2 5c3e80d, 2017-08-06"
   sodipodi:docname="drawing.svg">
  <defs
     id="defs2" />
  <sodipodi:namedview
     id="base"
     pagecolor="#ffffff"
     bordercolor="#666666"
     borderopacity="1.0"
     inkscape:pageopacity="0.0"
     inkscape:pageshadow="2"
     inkscape:zoom="1.979899"
     inkscape:cx="183.83756"
     inkscape:cy="44.318001"
     inkscape:document-units="px"
     inkscape:current-layer="Layer1000"
     showgrid="false"
     inkscape:window-width="1440"
     inkscape:window-height="799"
     inkscape:window-x="0"
     inkscape:window-y="1"
     inkscape:window-maximized="1"
     units="px" />
  <metadata
     id="metadata5">
    <rdf:RDF>
      <cc:Work
         rdf:about="">
        <dc:format>image/svg+xml</dc:format>
        <dc:type
           rdf:resource="http://purl.org/dc/dcmitype/StillImage" />
        <dc:title></dc:title>
      </cc:Work>
    </rdf:RDF>
  </metadata>
  <g
     inkscape:label="Layer 1"
     inkscape:groupmode="layer"
     id="layer1"
     transform="translate(0,-281.125)">
    <g
       id="Layer1000"
       transform="matrix(0.26458333,0,0,0.26458333,13.802054,7.895419)">
      <path
         inkscape:connector-curvature="0"
         id="path3882"
         style="fill-rule:evenodd;stroke-width:0.311665"
         d="m -44.219029,1032.6788 h 23.023469 c 1.378555,0 2.696774,1.0294 2.50638,2.2566 l -2.048822,13.1987 h -0.0079 l 9.5e-5,0.011 c 0,0.017 -5.7e-4,0.036 -0.0016,0.053 l -0.01935,0.1246 c -0.09054,0.3736 -0.459923,0.6533 -0.901925,0.6533 l -22.12535,0.011 c -0.470552,0 -0.858829,-0.3169 -0.915987,-0.7264 h -0.002 l -2.012604,-13.3157 c -0.185721,-1.2297 1.127822,-2.2568 2.506375,-2.2568 z m -5.000919,25.5952 c 4.879862,3.3606 10.617681,5.137 16.541716,5.137 5.759103,0 11.400266,-1.6328 16.16378,-4.8745 2.949073,-2.0078 4.394511,1.4793 2.429591,2.7308 -5.612086,3.5749 -11.895256,5.7733 -18.593371,5.7733 -6.700145,0 -12.89259,-2.2915 -18.556284,-5.748 -0.559752,-0.3415 -0.930728,-0.9209 -0.930728,-1.5855 0,-1.6058 1.515845,-2.4173 2.945296,-1.4331 z m 14.419211,15.1637 c 1.03152,-0.4691 3.248734,-0.4942 4.28097,-0.026 0.731258,-2.4944 3.034057,-4.2415 5.671023,-4.2415 3.26385,0 5.910447,2.6465 5.910447,5.9104 0,3.2638 -2.646597,5.9104 -5.910447,5.9104 -3.263757,0 -5.910445,-2.6466 -5.910445,-5.9104 0,-0.051 5.7e-4,-0.1032 0.0016,-0.1545 -0.65475,-0.6027 -3.136813,-0.5437 -3.813531,0.026 8.77e-4,0.043 0.0016,0.087 0.0016,0.1293 0,3.2637 -2.646502,5.9104 -5.910355,5.9104 -3.26394,0 -5.910444,-2.6465 -5.910444,-5.9104 0,-3.2639 2.646504,-5.9105 5.910444,-5.9105 2.64738,0 4.956573,1.761 5.679074,4.2683 z m 9.951993,-2.8863 c -2.501177,0 -4.528366,2.0274 -4.528366,4.5285 0,2.501 2.027189,4.5284 4.528366,4.5284 2.501171,0 4.528338,-2.0272 4.528338,-4.5284 0,-2.5011 -2.027167,-4.5285 -4.528338,-4.5285 z m -15.631059,-10e-5 c -2.50117,0 -4.5288,2.0275 -4.5288,4.5286 0,2.5013 2.02763,4.5287 4.5288,4.5287 2.501181,0 4.528712,-2.0275 4.528712,-4.5287 0,-2.5011 -2.027531,-4.5286 -4.528712,-4.5286 z m -8.283308,15.7255 c 0.291715,1.8844 1.040431,3.4184 2.452397,4.5353 3.963979,3.1372 10.213668,2.0952 13.651393,-1.4509 3.432871,3.5333 9.680944,4.5613 13.633919,1.433 1.411931,-1.1169 2.160644,-2.651 2.452366,-4.5353 -2.322532,1.7696 -4.211968,2.7304 -7.600202,1.3793 -3.509133,-1.3997 -5.118255,-6.5408 -8.501633,-2.1384 -3.263939,-4.417 -5.019549,0.7731 -8.488009,2.1562 -3.388264,1.3514 -5.27764,0.3903 -7.600231,-1.3792 z m 27.42842,-34.2992 -0.0061,0.04 c -0.0137,0.076 -0.03874,0.1475 -0.0734,0.2148 l 0.03755,0.015 -0.869572,5.6022 c -0.418506,2.6959 -8.471835,3.4107 -10.738353,3.4107 -2.17499,0 -9.879379,-0.7788 -10.277125,-3.4107 l -0.89196,-5.901 c -0.0015,-0.022 -0.003,-0.043 -0.003,-0.065 0,-0.4591 0.413369,-0.8315 0.923314,-0.8315 h 20.981282 c 0.509919,0 0.923307,0.3722 0.923307,0.8314 0,0.034 -0.0021,0.063 -0.006,0.094 z" />
      <path
         inkscape:connector-curvature="0"
         id="path3884"
         style="fill-rule:evenodd;stroke-width:0.28501788"
         d="m 100.90865,1052.192 0.041,-4.1263 h 4.99696 l -0.0514,4.1263 z m 0.041,22.6353 -0.041,-20.3358 h 4.98656 l 0.0514,20.3358 z m -46.010035,-22.6353 0.04102,-4.1263 h 4.996962 l -0.05145,4.1263 z m -8.905156,17.9451 c 0.57206,-0.5413 1.062404,-1.3492 1.349445,-2.289 0.285902,-0.9398 0.428983,-2.0235 0.428983,-3.2394 0,-1.206 -0.133589,-2.2788 -0.419033,-3.1989 -0.285819,-0.9298 -0.695246,-1.7778 -1.307977,-2.381 -0.675008,-0.6131 -1.502586,-0.9603 -2.319875,-0.9706 -2.902763,0 -3.454587,2.6774 -3.454587,3.9756 l 1.14e-4,4.5262 c 0,4.4151 2.779921,4.518 3.351981,4.518 0.837639,-0.021 1.798434,-0.399 2.370949,-0.9409 z m 35.734545,1.0465 c 0.341392,-0.1324 0.682218,-0.3257 0.991547,-0.6024 0.319823,-0.2656 0.576106,-0.6335 0.778616,-1.0732 0.202989,-0.449 0.308986,-0.9907 0.32016,-1.635 v -2.7181 c -0.671729,-0.011 -1.312023,0.041 -1.941141,0.1535 -0.628694,0.1021 -1.204377,0.2858 -1.716296,0.5522 -0.511919,0.2759 -0.916615,0.6435 -1.215544,1.1135 -0.308957,0.4803 -0.458484,0.889 -0.469308,1.6246 0.01075,0.6333 0.118083,1.1652 0.330878,1.5738 0.202184,0.4087 0.490459,0.7054 0.831647,0.8995 0.340941,0.1945 0.724831,0.2963 1.130666,0.2855 0.298215,0.011 0.617579,-0.05 0.958775,-0.1739 z m 2.319958,1.8562 -0.06101,0.05 c -0.511037,0.8075 -1.931568,2.105 -4.670446,2.105 -1.083209,-0.011 -2.01328,-0.2962 -2.800273,-0.8372 -0.776612,-0.5518 -1.379397,-1.2872 -1.808382,-2.1979 -0.419029,-0.9193 -0.633876,-1.9312 -0.633876,-3.0347 0,-1.2977 0.245116,-2.4318 0.70519,-3.3818 0.470449,-0.961 1.124343,-1.7582 1.982642,-2.3819 0.848015,-0.6338 1.8598,-1.1039 3.014748,-1.41 1.164556,-0.3067 2.442264,-0.4601 3.832493,-0.4601 0.0099,-0.6742 -0.07218,-1.2773 -0.246026,-1.8087 -0.173005,-0.5211 -0.490007,-0.9402 -0.950048,-1.2466 -0.449676,-0.307 -1.103562,-0.4701 -1.941973,-0.4701 -0.806888,-10e-5 -1.5835,0.1328 -2.319417,0.3882 -0.746318,0.2556 -1.399726,0.5826 -1.971898,0.9917 l -0.878998,-3.4957 c 0.388311,-0.2652 0.878998,-0.531 1.471067,-0.7969 0.603243,-0.2552 1.28808,-0.4697 2.054379,-0.6437 0.776276,-0.1732 1.614571,-0.2553 2.524432,-0.2662 1.358712,0.011 2.472869,0.2461 3.372302,0.6954 0.899117,0.4497 1.603828,1.0732 2.114978,1.8602 0.521098,0.7866 0.889053,1.6856 1.103873,2.6874 0.214617,1.0115 0.316995,2.0747 0.316995,3.1987 v 7.1329 c 0,0.8998 0.490006,1.8495 1.788037,1.9317 v 3.7606 c -2.810196,0.6852 -4.843797,-0.041 -5.998778,-2.3706 z m -58.888398,-1.8562 c 0.340853,-0.1324 0.681792,-0.3257 0.99155,-0.6024 0.319705,-0.2656 0.575678,-0.6335 0.778185,-1.0732 0.202959,-0.449 0.308958,-0.9907 0.320501,-1.635 v -2.7181 c -0.67173,-0.011 -1.312052,0.041 -1.941513,0.1535 -0.628665,0.1021 -1.204001,0.2858 -1.716263,0.5522 -0.511951,0.2759 -0.916648,0.6435 -1.215203,1.1135 -0.309303,0.4803 -0.458479,0.889 -0.469225,1.6246 0.01076,0.6333 0.117655,1.1652 0.330449,1.5738 0.202164,0.4087 0.490459,0.7054 0.831626,0.8995 0.340967,0.1945 0.724857,0.2963 1.130667,0.2855 0.298242,0.011 0.617946,-0.05 0.959226,-0.1739 z m 29.780065,3.6437 -0.04102,-20.3358 h 4.986531 l 0.05145,20.3358 z m 56.712061,0.2158 c -0.66415,-0.1236 -1.28854,-0.2762 -1.86026,-0.4806 -0.57248,-0.2047 -1.07323,-0.4395 -1.51216,-0.7161 l 0.6029,-3.9653 c 0.3475,0.2152 1.72656,0.8899 3.09635,1.1762 0.55216,0.143 1.10398,0.2045 1.63537,0.2141 0.88834,-0.011 1.54212,-0.1934 1.96149,-0.5619 0.42978,-0.3683 0.63388,-0.8687 0.61354,-1.5021 -0.01,-0.4091 -0.10287,-0.7774 -0.2866,-1.0936 -0.17379,-0.3066 -0.45928,-0.6028 -0.87876,-0.8891 -0.39902,-0.2759 -0.96003,-0.5823 -1.65482,-0.889 -1.19686,-0.5214 -2.15644,-1.1039 -2.89235,-1.7374 -0.72562,-0.644 -1.26739,-1.3183 -1.60395,-2.0333 -0.33799,-0.7157 -0.52143,-1.4511 -0.5326,-2.2081 -0.0303,-1.236 0.22522,-2.34 0.76744,-3.3106 0.54111,-0.9708 1.32878,-1.7371 2.34983,-2.3099 1.03302,-0.5618 2.24852,-0.8481 3.66941,-0.858 0.98114,0.011 1.87969,0.122 2.6973,0.3372 0.80781,0.2148 1.50302,0.4797 2.06435,0.807 l -0.37792,3.9141 c -0.42852,-0.2558 -1.43078,-0.5824 -2.06387,-0.7969 -0.62347,-0.2252 -1.30889,-0.3376 -2.03406,-0.3579 -0.76701,0.011 -1.34879,0.2044 -1.73741,0.562 -0.38819,0.358 -0.58292,0.8277 -0.56256,1.3902 1.1e-4,0.3781 0.10244,0.7049 0.29664,0.9907 0.18501,0.2966 0.50075,0.5725 0.93054,0.8384 0.43903,0.2759 1.02092,0.5726 1.75806,0.8995 1.62428,0.7151 2.83984,1.5834 3.63791,2.6056 0.80654,1.0321 1.22593,2.2481 1.2666,3.6588 0.0309,1.308 -0.23482,2.4527 -0.78699,3.4133 -0.56167,0.9704 -1.39013,1.7278 -2.49334,2.2589 -1.09382,0.5313 -2.44258,0.8058 -4.02619,0.8177 -0.70471,-0.012 -1.39012,-0.062 -2.044,-0.1739 z M 8.5707408,1075.217 c -1.8707441,-0.012 -3.5156103,-0.3588 -4.946771,-1.0525 -1.4403097,-0.6954 -2.64644768,-1.6768 -3.63754089,-2.9642 -0.98103181,-1.2778 -1.72780721,-2.8003 -2.22764331,-4.5579 -0.5112643,-1.7682 -0.7668969,-3.7196 -0.7668969,-5.8661 0.010178,-2.5245 0.3370047,-4.7418 0.9809453,-6.6327 0.6341934,-1.9001 1.51296057,-3.4845 2.63672944,-4.7516 1.11393596,-1.2773 2.40156136,-2.2281 3.86233486,-2.8616 1.4619988,-0.6336 3.0251512,-0.9504 4.6809623,-0.9504 0.8889424,-10e-5 1.6758194,0.061 2.3608894,0.1739 1.644866,0.3268 3.310967,0.7765 5.017739,1.574 l -0.429095,4.1176 -1.503041,-0.011 c -1.655242,-1.0121 -3.4026,-1.206 -5.2212707,-1.206 -1.0326767,0 -1.9930166,0.205 -2.8820725,0.6131 -0.8885998,0.4191 -1.6760482,1.0427 -2.3504861,1.8906 -0.6745516,0.838 -1.1956495,1.9113 -1.5741249,3.1891 -0.3777915,1.2872 -0.5721454,2.8098 -0.5819782,4.5472 0.00994,2.187 0.3168544,4.0159 0.9090367,5.4981 0.6031256,1.4921 1.4518233,2.616 2.5446392,3.3723 1.1043303,0.7662 2.4020173,1.1455 3.9038047,1.1555 1.7678228,-0.033 3.4644208,-0.3893 5.0895078,-1.1144 l 1.491725,-0.032 0.460162,4.1696 c -2.575023,1.3496 -5.825537,1.788 -7.8175552,1.6974 z m 83.4506122,-4.9666 v -26.4791 l 5.089136,2.415 v 23.4501 c 0.0099,1.3694 0.582011,1.8503 1.531965,1.8802 l 1.23e-4,3.6784 c -4.547631,0.7267 -6.621224,-1.2357 -6.621224,-4.9446 z m 34.942787,4.6591 c -0.6948,-0.347 -1.2359,-0.8064 -1.63447,-1.3793 -0.3987,-0.5626 -0.68541,-1.1744 -0.8584,-1.8291 -0.18409,-0.6549 -0.29654,-1.2885 -0.33769,-1.9108 -0.0405,-0.6241 -0.0614,-1.155 -0.0514,-1.6155 l -0.01,-9.8409 h -2.29874 v -3.8324 h 2.29874 l 0.01,-7.0936 4.98823,2.7011 v 4.3825 h 3.43303 v 3.9444 h -3.43303 v 9.9641 c 0,1.4101 0.19371,1.9927 0.56135,2.5448 0.37833,0.5419 1.57399,0.9803 2.87168,0.6227 v 3.5052 c -0.26558,0.1223 -0.56144,0.1945 -0.86883,0.2558 -0.58188,0.082 -1.2466,0.1233 -1.99248,0.1233 -1.08317,-0.011 -1.97224,-0.1945 -2.67796,-0.5423 z m -60.136941,0 c -0.694903,-0.347 -1.235867,-0.8064 -1.635007,-1.3793 -0.39814,-0.5626 -0.684839,-1.1744 -0.857875,-1.8291 -0.184206,-0.6549 -0.296646,-1.2885 -0.33766,-1.9108 -0.04025,-0.6241 -0.06147,-1.155 -0.05141,-1.6155 l -0.0099,-9.8409 H 61.6365 v -3.8324 h 2.29884 l 0.0099,-7.0936 4.987786,2.7011 v 4.3825 h 3.433352 v 3.9444 h -3.433352 v 9.9641 c 0,1.4101 0.193696,1.9927 0.561655,2.5448 0.378019,0.5419 1.574011,0.9803 2.871697,0.6227 v 3.5052 c -0.265462,0.1223 -0.561766,0.1945 -0.868706,0.2558 -0.582005,0.082 -1.246723,0.1233 -1.992587,0.1233 -1.08321,-0.011 -1.972238,-0.1945 -2.677886,-0.5423 z m -39.307101,-1.8697 -0.06102,0.05 c -0.511151,0.8075 -1.931564,2.105 -4.670473,2.105 -1.083182,-0.011 -2.013251,-0.2962 -2.799931,-0.8372 -0.776587,-0.5518 -1.379401,-1.2872 -1.80838,-2.1979 -0.419375,-0.9193 -0.633853,-1.9312 -0.633853,-3.0347 0,-1.2977 0.244775,-2.4318 0.704823,-3.3818 0.470478,-0.961 1.12468,-1.7582 1.98264,-2.3819 0.848385,-0.6338 1.8598,-1.1039 3.015206,-1.41 1.164126,-0.3067 2.442259,-0.4601 3.832406,-0.4601 0.0096,-0.6742 -0.07211,-1.2773 -0.246028,-1.8087 -0.173376,-0.5211 -0.490345,-0.9402 -0.95042,-1.2466 -0.449673,-0.307 -1.103533,-0.4701 -1.941514,-0.4701 -0.807341,-10e-5 -1.583928,0.1328 -2.319846,0.3882 -0.745977,0.2556 -1.399409,0.5826 -1.971895,0.9917 l -0.878995,-3.4957 c 0.388307,-0.2652 0.878995,-0.531 1.471034,-0.7969 0.603239,-0.2552 1.288081,-0.4697 2.054751,-0.6437 0.776246,-0.1732 1.614227,-0.2553 2.524061,-0.2662 1.358708,0.011 2.472985,0.2461 3.372332,0.6954 0.898973,0.4497 1.603823,1.0732 2.114974,1.8602 0.521526,0.7866 0.889028,1.6856 1.103875,2.6874 0.21493,1.0115 0.316997,2.0747 0.316997,3.1987 v 7.1329 c 0,0.8998 0.490002,1.8495 1.788031,1.9317 v 3.7606 c -2.809878,0.6852 -4.843822,-0.041 -5.998771,-2.3706 z m 13.148987,8.2058 -4.901653,-2.2994 v -17.8121 c 0,-1.298 -0.0099,-2.494 -0.0399,-3.5871 -0.02069,-1.0831 0.0399,-2.4219 0,-3.3416 h 3.786604 c 0.220947,0.4391 0.381525,0.899 0.481539,1.359 1.346396,-1.0323 2.983681,-1.5532 4.922486,-1.533 2.008949,0 3.314901,0.5208 4.369382,1.38 1.054623,0.8482 1.878238,2.0439 2.481364,3.5864 0.602443,1.5431 0.91414,3.352 0.9242,5.4268 -0.0099,1.8496 -0.231348,3.4544 -0.663493,4.8035 -0.431689,1.3483 -1.004204,2.4522 -1.727806,3.3208 -0.72235,0.8689 -1.536476,1.5129 -2.430719,1.9313 -0.893331,0.4185 -1.818327,0.6246 -2.761965,0.6246 -1.727807,0.05 -3.224494,-0.3994 -4.440037,-1.4008 z" />
    </g>
  </g>
</svg>
