<?xml version="1.0" encoding="utf-8"?>
<!-- Generator: Adobe Illustrator 16.0.0, SVG Export Plug-In . SVG Version: 6.00 Build 0)  -->
<!DOCTYPE svg PUBLIC "-//W3C//DTD SVG 1.1//EN" "http://www.w3.org/Graphics/SVG/1.1/DTD/svg11.dtd">
<svg version="1.1" id="Layer_1" xmlns="http://www.w3.org/2000/svg" xmlns:xlink="http://www.w3.org/1999/xlink" x="0px" y="0px"
	 width="2000px" height="2000px" viewBox="0 0 2000 2000" enable-background="new 0 0 2000 2000" xml:space="preserve">
<g>
	<path fill="#5E6872" d="M1751.412,1414.797c0,72.006-14.895,134.633-44.608,187.82c-29.751,53.227-70.435,97.436-122.085,132.652
		c-51.655,35.217-111.924,61.846-180.783,79.826c-68.893,18.008-141.671,26.998-218.344,26.998H373.258V175.162h927.377
		c57.888,0,110.348,12.542,157.303,37.57c46.955,25.046,86.868,57.521,119.738,97.425c32.865,39.913,58.288,85.33,76.302,136.175
		c17.976,50.884,26.999,102.938,26.999,156.127c0,79.825-19.957,154.956-59.869,225.391
		c-39.912,70.435-99.781,123.662-179.607,159.65c95.453,28.17,170.988,78.283,226.563,150.261
		C1723.604,1209.768,1751.412,1302.106,1751.412,1414.797z M758.295,503.853v345.129h377.994c42.26,0,79.825-14.095,112.695-42.265
		c32.865-28.17,49.303-71.968,49.303-131.471c0-54.769-14.49-97.034-43.437-126.785c-28.979-29.713-63.792-44.608-104.477-44.608
		H758.295z M1359.327,1337.314c0-51.646-14.89-95.443-44.607-131.471c-29.751-35.989-67.316-53.998-112.69-53.998H758.295v363.908
		h427.297c50.074,0,91.563-16.438,124.433-49.303C1342.895,1433.576,1359.327,1390.551,1359.327,1337.314z"/>
</g>
</svg>
