<?xml version="1.0" encoding="utf-8"?>
<!-- Generator: Adobe Illustrator 16.0.0, SVG Export Plug-In . SVG Version: 6.00 Build 0)  -->
<!DOCTYPE svg PUBLIC "-//W3C//DTD SVG 1.1//EN" "http://www.w3.org/Graphics/SVG/1.1/DTD/svg11.dtd">
<svg version="1.1" id="Layer_1" xmlns="http://www.w3.org/2000/svg" xmlns:xlink="http://www.w3.org/1999/xlink" x="0px" y="0px"
	 width="2000px" height="2000px" viewBox="0 0 2000 2000" enable-background="new 0 0 2000 2000" xml:space="preserve">
<g>
	<path fill="#5E6872" d="M904.194,225.844l14.14-47.543h850.544l-16.707,47.543c-77.094,0-135.976,17.141-176.664,51.402
		c-40.678,34.262-107.281,214.541-107.281,214.541L979.594,1607.014c-23.124,78.79-34.686,131.466-34.686,158.026
		c0,30.824,11.984,54.818,35.969,71.938c30.835,22.275,89.08,34.262,174.733,35.979l-12.847,47.542h-864.67l14.129-47.542
		c86.513,0,149.901-16.494,190.156-49.461c40.254-32.967,109.212-216.483,109.212-216.483l491.198-1115.227
		c19.698-68.523,29.552-120.328,29.552-155.459c0-31.674-11.997-56.516-35.979-74.506
		C1052.378,243.832,994.993,231.848,904.194,225.844z"/>
</g>
</svg>
