<?xml version="1.0" encoding="utf-8"?>
<!-- Generator: Adobe Illustrator 16.0.0, SVG Export Plug-In . SVG Version: 6.00 Build 0)  -->
<!DOCTYPE svg PUBLIC "-//W3C//DTD SVG 1.1//EN" "http://www.w3.org/Graphics/SVG/1.1/DTD/svg11.dtd">
<svg version="1.1" id="Layer_1" xmlns="http://www.w3.org/2000/svg" xmlns:xlink="http://www.w3.org/1999/xlink" x="0px" y="0px"
	 width="2760px" height="2504.5px" viewBox="-431.5 0 2760 2504.5" enable-background="new -431.5 0 2760 2504.5"
	 xml:space="preserve">
<polygon fill="#5E6872" points="2208.814,1586.446 2049.712,1427.345 1745.844,1731.213 1441.976,1427.345 1282.873,1586.446 
	1586.742,1890.314 1282.873,2194.184 1441.976,2353.285 1745.844,2049.417 2049.712,2353.285 2208.814,2194.184 1904.945,1890.314 
	"/>
<g>
	<path fill="#5E6872" d="M-241.367,1739.193c0-103.977,39.121-201.215,113.379-275.38l280.804-280.882
		c72.921-72.927,172.825-113.386,275.473-113.386c106.642,0,206.537,43.114,280.882,118.701l118.797-118.701
		c-75.674-74.353-118.797-175.498-118.797-282.306c0-102.57,39.129-201.042,112.059-273.971l278.138-279.476
		C1172.29,159.458,1270.77,119,1374.747,119c102.655,0,201.224,39.033,274.145,111.962l198.47,197.136
		c72.931,71.681,114.717,171.592,114.717,274.145c0,103.977-39.13,201.215-113.387,275.378l-280.796,280.897
		c-72.929,72.93-172.826,113.389-275.474,113.389c-106.641,0-206.545-43.132-280.891-118.719l-118.795,118.719
		c75.681,74.336,118.795,175.482,118.795,282.305c0,102.555-39.129,201.026-112.05,273.956l-278.139,279.474
		c-72.929,74.337-171.409,114.796-275.386,114.796c-102.647,0-201.215-39.034-274.144-111.965l-198.464-197.134
		C-199.581,1941.659-241.367,1841.764-241.367,1739.193z M966.993,787.24c0,40.632,16.236,71.679,44.539,98.646
		c44.627-44.54,82.42-97.223,151.268-97.223c71.594,0,129.623,58.014,129.623,129.52c0,69.022-52.699,106.823-97.238,151.362
		c27.054,28.39,58.109,41.865,97.238,41.865c33.713,0,67.513-12.241,91.822-36.552l280.796-280.882
		c24.31-24.31,37.793-56.607,37.793-91.735c0-33.72-13.483-66.191-37.793-90.502l-198.464-197.134
		c-24.311-22.886-58.022-36.361-91.829-36.361c-33.713,0-67.513,13.476-91.822,37.785l-278.138,279.475
		C980.477,719.815,966.993,753.519,966.993,787.24z M17.87,1739.193c0,33.72,13.484,66.192,37.794,90.501l198.463,197.135
		c24.31,22.888,58.03,35.128,91.83,35.128c33.712,0,67.512-12.24,91.822-36.551l278.139-279.46
		c24.31-24.309,37.793-58.029,37.793-91.734c0-40.647-16.235-71.694-44.539-98.661c-44.625,44.538-82.419,97.238-151.267,97.238
		c-71.593,0-129.615-58.03-129.615-129.535c0-69.023,52.701-106.825,97.239-151.347c-27.063-28.391-58.118-43.132-97.239-43.132
		c-33.713,0-67.52,13.491-91.83,37.801L55.664,1647.458C31.354,1671.769,17.87,1704.065,17.87,1739.193z"/>
</g>
</svg>
