<svg width="75" height="75" viewBox="0 0 75 75" fill="none" xmlns="http://www.w3.org/2000/svg">
<path d="M74.518 40.8398L69.0066 32.0943C68.57 31.4009 68.4228 30.5637 68.5958 29.7632L70.7838 19.66C71.125 18.0855 70.2141 16.5096 68.6804 16.0174L58.8369 12.8607C58.0568 12.6103 57.4057 12.0641 57.0238 11.3395L52.2058 2.19405C51.4553 0.768325 49.7448 0.146146 48.2533 0.754967L38.683 4.66451C37.9246 4.97358 37.0749 4.97358 36.3166 4.66451L26.7479 0.755702C25.2563 0.146882 23.5458 0.76906 22.7946 2.19479L17.9766 11.3394C17.5947 12.064 16.9436 12.6102 16.1635 12.8606L6.32014 16.0173C4.78559 16.5094 3.87554 18.0855 4.21672 19.6599L6.40384 29.763C6.57761 30.5635 6.4297 31.4009 5.99306 32.0942L0.482424 40.8398C-0.376763 42.2029 -0.0598532 43.995 1.2133 44.9826L9.38287 51.3155C10.0308 51.8179 10.4557 52.5535 10.5668 53.3658L11.9668 63.6075C12.1843 65.2038 13.5795 66.3738 15.1885 66.3112L25.5178 65.9113C26.3363 65.8792 27.1345 66.1704 27.7426 66.7204L35.3972 73.666C36.5906 74.7483 38.4115 74.7483 39.604 73.666L47.2595 66.7204C47.866 66.1695 48.6649 65.8792 49.4843 65.9113L59.8128 66.3112C61.4232 66.3738 62.8169 65.2031 63.0352 63.6075L64.4352 53.3658C64.5463 52.5535 64.9712 51.818 65.6184 51.3155L73.788 44.9826C75.061 43.995 75.3772 42.2029 74.518 40.8398ZM28.8279 49.9899L19.706 43.6186L23.4551 52.3078L20.9565 53.3861L15.2065 40.0628L17.8233 38.9327L27.1173 45.4769L23.2767 36.5797L25.7753 35.5005L31.5269 48.8246L28.8279 49.9899ZM34.3712 47.5969L28.6213 34.2736L38.5006 30.0088L39.4726 32.2632L32.2828 35.3658L33.5575 38.3191L40.2473 35.4317L41.216 37.6767L34.5263 40.5635L36.0913 44.1897L43.5347 40.9775L44.5034 43.2225L34.3712 47.5969ZM56.8932 37.8772L49.9404 29.0605L51.5938 40.163L48.6766 41.4221L39.7463 29.4721L42.4993 28.2827L48.4582 36.568L46.944 26.3655L50.1444 24.9844L56.4962 33.2831L54.5243 23.0938L57.2326 21.9247L59.7468 36.6456L56.8932 37.8772Z" fill="#82BA2E"/>
</svg>
