<?xml version="1.0" encoding="utf-8"?>
<!-- Generator: Adobe Illustrator 16.0.0, SVG Export Plug-In . SVG Version: 6.00 Build 0)  -->
<!DOCTYPE svg PUBLIC "-//W3C//DTD SVG 1.1//EN" "http://www.w3.org/Graphics/SVG/1.1/DTD/svg11.dtd">
<svg version="1.1" id="Layer_1" xmlns="http://www.w3.org/2000/svg" xmlns:xlink="http://www.w3.org/1999/xlink" x="0px" y="0px"
	 width="2576px" height="2504.5px" viewBox="-431.5 0 2576 2504.5" enable-background="new -431.5 0 2576 2504.5"
	 xml:space="preserve">
<path fill="#5E6872" d="M949.672,1086.701c0,136.607,114.747,247.616,256.073,247.616h298.797c70.673,0,128.15,55.32,128.15,123.605
	v41.336c0,181.683-153.539,329.904-341.52,329.904h-85.428c-46.653,0-85.217,37.408-85.217,82.481v164.943
	c0,45.266,38.563,82.48,85.217,82.48h85.428c376.153,0,682.827-296.446,682.827-659.81V591.854
	c0-136.607-114.764-247.616-256.091-247.616h-512.164c-141.326,0-256.073,111.008-256.073,247.616V1086.701z M-245.125,1086.701
	c0,136.607,114.745,247.616,256.073,247.616h298.604c70.673,0,128.15,55.32,128.15,123.605v41.336
	c0,181.683-153.347,329.904-341.519,329.904H10.948c-46.634,0-85.428,37.408-85.428,82.481v164.943
	c0,45.266,38.794,82.48,85.428,82.48h85.235c376.152,0,682.827-296.446,682.827-659.81V591.854
	c0-136.607-114.551-247.616-256.091-247.616H10.948c-141.328,0-256.073,111.008-256.073,247.616V1086.701z"/>
</svg>
