<?xml version="1.0" encoding="utf-8"?>
<!-- Generator: Adobe Illustrator 16.0.0, SVG Export Plug-In . SVG Version: 6.00 Build 0)  -->
<!DOCTYPE svg PUBLIC "-//W3C//DTD SVG 1.1//EN" "http://www.w3.org/Graphics/SVG/1.1/DTD/svg11.dtd">
<svg version="1.1" id="Layer_1" xmlns="http://www.w3.org/2000/svg" xmlns:xlink="http://www.w3.org/1999/xlink" x="0px" y="0px"
	 width="2000px" height="2000px" viewBox="0 0 2000 2000" enable-background="new 0 0 2000 2000" xml:space="preserve">
<g>
	<path fill="#5E6872" d="M1025.327,1259.93c64.593,0,118.967-13.028,163.138-39.418c44.157-26.375,79.721-60.645,106.743-102.796
		c27.035-42.322,46.098-90.743,57.357-145.447c11.182-54.534,16.818-111.008,16.818-168.934V87.711h270.844v715.624
		c0,96.209-11.577,186.479-34.666,270.778c-23.009,84.46-59.285,158.146-108.684,221.38
		c-49.465,63.392-113.014,113.424-190.808,150.268c-77.794,37.002-170.7,55.338-278.737,55.338
		c-112.063,0-207.31-19.3-285.656-58.229c-78.427-38.942-142.057-90.268-190.807-154.293
		c-48.752-63.88-83.984-138.043-105.793-222.344c-21.717-84.315-32.58-171.996-32.58-262.897V87.711h272.784v715.624
		c0,59.207,5.638,116.327,16.818,171.032c11.181,54.69,30.323,103.125,57.358,145.276c27.021,42.151,62.255,76.104,105.778,101.847
		C908.684,1247.06,962.095,1259.93,1025.327,1259.93z"/>
</g>
<rect x="412.497" y="1708.5" fill="#5E6872" width="1227.73" height="224"/>
</svg>
