<svg
        xmlns="http://www.w3.org/2000/svg"
        xmlns:xlink="http://www.w3.org/1999/xlink"
        width="1.058cm" height="1.058cm">
    <path fill-rule="evenodd"  fill="rgb(176, 177, 178)"
          d="M-0.000,30.000 L-0.000,29.121 C-0.000,26.465 1.580,24.170 3.849,23.128 C2.781,22.304 2.092,21.013 2.092,19.564 C2.092,17.083 4.110,15.064 6.592,15.064 C7.954,15.064 9.176,15.673 10.002,16.633 C10.540,14.372 12.577,12.685 15.000,12.685 C17.423,12.685 19.460,14.372 19.998,16.633 C20.824,15.673 22.046,15.064 23.408,15.064 C25.890,15.064 27.908,17.083 27.908,19.564 C27.908,21.013 27.219,22.304 26.151,23.128 C28.420,24.170 30.000,26.465 30.000,29.121 L30.000,30.000 L-0.000,30.000 ZM20.774,28.242 C20.348,25.438 17.921,23.281 15.000,23.281 C12.079,23.281 9.652,25.438 9.226,28.242 L20.774,28.242 ZM1.838,28.242 L7.454,28.242 C7.600,26.974 8.061,25.800 8.755,24.800 C8.104,24.472 7.369,24.287 6.592,24.287 C4.226,24.287 2.252,25.995 1.838,28.242 ZM6.592,16.822 C5.080,16.822 3.850,18.052 3.850,19.564 C3.850,21.076 5.080,22.306 6.592,22.306 C8.104,22.306 9.334,21.076 9.334,19.564 C9.334,18.052 8.104,16.822 6.592,16.822 ZM10.889,20.901 C10.611,21.794 10.060,22.569 9.335,23.128 C9.546,23.225 9.751,23.333 9.949,23.451 C10.590,22.879 11.328,22.415 12.135,22.085 C11.656,21.763 11.235,21.362 10.889,20.901 ZM15.000,14.443 C13.136,14.443 11.620,15.959 11.620,17.823 C11.620,19.687 13.136,21.203 15.000,21.203 C16.864,21.203 18.380,19.687 18.380,17.823 C18.380,15.959 16.864,14.443 15.000,14.443 ZM19.111,20.901 C18.765,21.362 18.344,21.763 17.865,22.085 C18.672,22.415 19.410,22.879 20.051,23.451 C20.249,23.333 20.454,23.225 20.665,23.128 C19.940,22.569 19.389,21.795 19.111,20.901 ZM23.408,16.822 C21.896,16.822 20.666,18.052 20.666,19.564 C20.666,21.076 21.896,22.306 23.408,22.306 C24.920,22.306 26.150,21.076 26.150,19.564 C26.150,18.052 24.920,16.822 23.408,16.822 ZM23.408,24.287 C22.631,24.287 21.897,24.472 21.245,24.800 C21.939,25.800 22.400,26.974 22.546,28.242 L28.162,28.242 C27.748,25.995 25.774,24.287 23.408,24.287 ZM20.555,14.337 L20.583,12.275 L17.081,12.275 L17.081,3.765 L28.747,3.765 L28.747,12.275 L24.396,12.275 L20.555,14.337 ZM26.989,5.522 L18.839,5.522 L18.839,10.517 L22.366,10.517 L22.354,11.376 L23.954,10.517 L26.989,10.517 L26.989,5.522 ZM20.555,7.068 L25.273,7.068 L25.273,8.825 L20.555,8.825 L20.555,7.068 ZM10.843,12.362 L6.409,9.982 L1.253,9.982 L1.253,-0.000 L15.079,-0.000 L15.079,9.982 L10.810,9.982 L10.843,12.362 ZM13.321,8.224 L13.321,1.758 L3.011,1.758 L3.011,8.224 L6.851,8.224 L9.044,9.402 L9.028,8.224 L13.321,8.224 ZM5.292,4.023 L11.039,4.023 L11.039,5.781 L5.292,5.781 L5.292,4.023 Z"/>
</svg>