<?xml version="1.0" encoding="utf-8"?>
<!-- Generator: Adobe Illustrator 16.0.0, SVG Export Plug-In . SVG Version: 6.00 Build 0)  -->
<!DOCTYPE svg PUBLIC "-//W3C//DTD SVG 1.1//EN" "http://www.w3.org/Graphics/SVG/1.1/DTD/svg11.dtd">
<svg version="1.1" id="Layer_1" xmlns="http://www.w3.org/2000/svg" xmlns:xlink="http://www.w3.org/1999/xlink" x="0px" y="0px"
	 width="138px" height="138px" viewBox="0 0 500 500" enable-background="new 0 0 500 500" xml:space="preserve">
<circle fill="#80BC1C" cx="243.513" cy="241.521" r="241.521"/>
<path fill="#E9EFF4" d="M389.748,388.029H97.279V338.46c0-35.234,22.547-66.515,55.972-77.657l53.704-17.902h73.117l53.705,17.902
	c33.424,11.143,55.971,42.423,55.971,77.657L389.748,388.029L389.748,388.029z"/>
<path fill="#D0D1D3" d="M389.748,338.46c0-35.234-22.545-66.515-55.971-77.657L280.072,242.9h-36.558v145.128h146.233V338.46z"/>
<polygon fill="#FED8B2" points="280.071,242.902 243.512,279.46 206.955,242.902 206.955,206.342 280.071,206.342 "/>
<polygon fill="#EFC095" points="280.071,206.342 243.515,206.342 243.515,279.46 280.071,242.902 "/>
<path fill="#F4E3C3" d="M170.396,133.226c0-40.381,32.736-73.117,73.116-73.117c40.382,0,73.117,32.736,73.117,73.117
	c0,40.381-32.735,109.676-73.117,109.676C203.131,242.902,170.396,173.607,170.396,133.226z"/>
<path fill="#FED8B2" d="M316.63,133.226c0-40.381-32.734-73.117-73.115-73.117v182.792
	C283.896,242.899,316.63,173.607,316.63,133.226z"/>
<path fill="#3F3B3B" d="M316.63,133.226c0-40.381-32.734-73.117-73.115-73.117c-40.381,0-73.117,32.736-73.117,73.117
	c0,16.115,5.225,36.826,14.056,55.908c-2.07-10.984-1.516-22.214-0.43-30.687c46.409-3.641,91.195-25.353,91.195-25.353
	s5.669,10.419,26.931,19.686c1.506,8.65,2.993,22.715,0.406,36.392C311.397,170.081,316.63,149.35,316.63,133.226z"/>
<path fill="#272525" d="M316.63,133.226c0-40.381-32.734-73.117-73.115-73.117v85.489c18.947-6.322,31.706-12.504,31.706-12.504
	s5.669,10.419,26.93,19.686c1.506,8.65,2.994,22.715,0.408,36.392C311.397,170.081,316.63,149.35,316.63,133.226z"/>
<polygon fill="#FC9483" points="228.139,386.751 238.387,291.63 248.638,291.63 258.886,386.751 "/>
<polygon fill="#FD8469" points="248.638,291.63 243.515,291.63 243.515,386.751 258.886,386.751 "/>
<path fill="#324A5E" d="M243.512,386.751l-53.282-138.275l-36.978,12.329c-33.426,11.142-55.971,42.423-55.971,77.656v49.568
	h146.235v-1.282L243.512,386.751z"/>
<path fill="#2B3B4E" d="M389.748,338.46c0-35.234-22.545-66.515-55.971-77.657l-36.982-12.327l-53.283,138.271v1.282h146.234V338.46
	H389.748z"/>
<polygon fill="#1B2B3A" points="296.795,248.476 306.927,291.63 287.71,301.236 306.927,323.337 243.512,386.751 "/>
<polygon fill="#2B3B4E" points="190.229,248.476 180.098,291.63 199.314,301.236 180.098,323.337 243.512,386.751 "/>
<polygon fill="#FD8469" points="263.689,279.619 250.239,311.327 236.786,311.327 223.335,279.619 "/>
<polygon fill="#FC6F58" points="263.689,279.619 243.515,279.619 243.515,311.327 250.239,311.327 "/>
<polygon fill="#E9EFF4" points="275.219,291.63 296.795,248.476 280.071,242.902 243.512,279.46 "/>
<polygon fill="#FFFFFF" points="211.805,291.63 190.229,248.476 206.953,242.902 243.512,279.46 "/>
<g>
	<polygon fill="#FFDA40" points="383.862,363.36 322.555,371.945 366.916,413.622 356.447,472.475 411.276,444.69 411.276,309.816 	
		"/>
	<polygon fill="#FFCE00" points="455.639,413.622 500,371.945 438.692,363.36 411.276,309.816 411.276,444.69 466.114,472.475 	"/>
</g>
</svg>
