<?xml version="1.0" encoding="utf-8"?>
<!-- Generator: Adobe Illustrator 16.0.0, SVG Export Plug-In . SVG Version: 6.00 Build 0)  -->
<!DOCTYPE svg PUBLIC "-//W3C//DTD SVG 1.1//EN" "http://www.w3.org/Graphics/SVG/1.1/DTD/svg11.dtd">
<svg version="1.1" id="Layer_1" xmlns="http://www.w3.org/2000/svg" xmlns:xlink="http://www.w3.org/1999/xlink" x="0px" y="0px"
	 width="138px" height="138px" viewBox="0 0 500 500" enable-background="new 0 0 500 500" xml:space="preserve">
<circle fill="#80BC1C" cx="251.254" cy="252.256" r="244.252"/>
<path fill="#E9EFF4" d="M399.144,400.42H103.367v-50.129c0-35.632,22.802-67.267,56.604-78.534l54.311-18.106h73.947l54.312,18.106
	c33.802,11.268,56.603,42.902,56.603,78.534L399.144,400.42L399.144,400.42z"/>
<path fill="#D0D1D3" d="M399.144,350.291c0-35.632-22.799-67.267-56.604-78.534l-54.311-18.106h-36.975v146.769h147.889V350.291z"/>
<polygon fill="#FED8B2" points="288.229,253.652 251.252,290.624 214.282,253.652 214.282,216.677 288.229,216.677 "/>
<polygon fill="#EFC095" points="288.229,216.677 251.255,216.677 251.255,290.624 288.229,253.652 "/>
<path fill="#F4E3C3" d="M177.31,142.735c0-40.837,33.105-73.943,73.942-73.943c40.842,0,73.947,33.105,73.947,73.943
	s-33.105,110.917-73.947,110.917C210.415,253.652,177.31,183.573,177.31,142.735z"/>
<path fill="#FED8B2" d="M325.2,142.735c0-40.837-33.104-73.943-73.945-73.943v184.86C292.096,253.649,325.2,183.573,325.2,142.735z"
	/>
<path fill="#3F3B3B" d="M325.2,142.735c0-40.837-33.104-73.943-73.945-73.943c-40.837,0-73.943,33.105-73.943,73.943
	c0,16.297,5.284,37.243,14.215,56.54c-2.093-11.108-1.533-22.465-0.435-31.034c46.934-3.683,92.228-25.64,92.228-25.64
	s5.733,10.537,27.235,19.909c1.523,8.747,3.027,22.971,0.411,36.803C319.908,180.006,325.2,159.042,325.2,142.735z"/>
<path fill="#272525" d="M325.2,142.735c0-40.837-33.104-73.943-73.945-73.943v86.454c19.165-6.393,32.067-12.645,32.067-12.645
	s5.733,10.537,27.233,19.909c1.524,8.747,3.029,22.971,0.415,36.803C319.908,180.006,325.2,159.042,325.2,142.735z"/>
<polygon fill="#FC9483" points="235.706,399.127 246.069,302.932 256.438,302.932 266.803,399.127 "/>
<polygon fill="#FD8469" points="256.438,302.932 251.255,302.932 251.255,399.127 266.803,399.127 "/>
<path fill="#324A5E" d="M251.252,399.127l-53.884-139.836l-37.396,12.468c-33.804,11.267-56.604,42.901-56.604,78.533v50.128
	h147.888v-1.295L251.252,399.127z"/>
<path fill="#2B3B4E" d="M399.144,350.291c0-35.632-22.799-67.267-56.604-78.534l-37.399-12.466l-53.889,139.834v1.295h147.89
	v-50.129H399.144z"/>
<polygon fill="#1B2B3A" points="305.141,259.291 315.387,302.932 295.954,312.647 315.387,334.997 251.252,399.127 "/>
<polygon fill="#2B3B4E" points="197.368,259.291 187.122,302.932 206.555,312.647 187.122,334.997 251.252,399.127 "/>
<polygon fill="#FD8469" points="271.661,290.785 258.059,322.852 244.45,322.852 230.848,290.785 "/>
<polygon fill="#FC6F58" points="271.661,290.785 251.255,290.785 251.255,322.852 258.059,322.852 "/>
<polygon fill="#E9EFF4" points="283.32,302.932 305.141,259.291 288.229,253.652 251.252,290.624 "/>
<polygon fill="#FFFFFF" points="219.187,302.932 197.368,259.291 214.28,253.652 251.252,290.624 "/>
</svg>
