<?xml version="1.0" encoding="utf-8"?>
<!-- Generator: Adobe Illustrator 16.0.0, SVG Export Plug-In . SVG Version: 6.00 Build 0)  -->
<!DOCTYPE svg PUBLIC "-//W3C//DTD SVG 1.1//EN" "http://www.w3.org/Graphics/SVG/1.1/DTD/svg11.dtd">
<svg version="1.1" id="Layer_1" xmlns="http://www.w3.org/2000/svg" xmlns:xlink="http://www.w3.org/1999/xlink" x="0px" y="0px"
	 width="166.517px" height="46px" viewBox="0 0 166.517 46" enable-background="new 0 0 166.517 46" xml:space="preserve">
<g>
	<path fill="#010101" d="M127.693,10.348l0.051-5.07h6.14l-0.063,5.07H127.693L127.693,10.348z M127.744,38.162l-0.051-24.989h6.127
		l0.063,24.989H127.744L127.744,38.162z M71.207,10.348l0.049-5.07h6.142l-0.063,5.07H71.207L71.207,10.348z M60.264,32.398
		c0.702-0.665,1.307-1.657,1.658-2.813s0.527-2.487,0.527-3.981c0-1.481-0.164-2.799-0.515-3.93
		c-0.352-1.143-0.854-2.185-1.607-2.926c-0.829-0.753-1.846-1.18-2.851-1.193c-3.567,0-4.245,3.291-4.245,4.885l0.001,5.563
		c0,5.424,3.415,5.551,4.118,5.551C58.379,33.529,59.56,33.064,60.264,32.398L60.264,32.398z M104.174,33.684
		c0.421-0.161,0.839-0.399,1.22-0.74c0.393-0.326,0.707-0.777,0.956-1.317c0.249-0.553,0.381-1.218,0.394-2.009v-3.341
		c-0.825-0.013-1.612,0.051-2.386,0.188c-0.771,0.126-1.479,0.352-2.109,0.678c-0.628,0.339-1.125,0.792-1.492,1.369
		c-0.38,0.59-0.564,1.093-0.577,1.996c0.013,0.778,0.145,1.433,0.405,1.935c0.25,0.502,0.604,0.866,1.023,1.105
		s0.891,0.363,1.389,0.351C103.363,33.911,103.756,33.836,104.174,33.684L104.174,33.684z M107.025,35.965l-0.075,0.063
		c-0.628,0.993-2.373,2.586-5.738,2.586c-1.331-0.011-2.475-0.362-3.441-1.028c-0.955-0.677-1.695-1.582-2.222-2.7
		c-0.517-1.131-0.78-2.373-0.78-3.729c0-1.596,0.303-2.99,0.868-4.156c0.578-1.182,1.381-2.16,2.436-2.928
		c1.043-0.778,2.285-1.356,3.704-1.733c1.432-0.376,3.002-0.565,4.71-0.565c0.011-0.828-0.089-1.569-0.302-2.222
		c-0.214-0.641-0.604-1.156-1.169-1.533c-0.552-0.376-1.355-0.577-2.386-0.577c-0.991,0-1.944,0.164-2.85,0.477
		c-0.917,0.314-1.72,0.716-2.422,1.219l-1.082-4.295c0.478-0.326,1.082-0.653,1.809-0.979c0.741-0.313,1.581-0.577,2.524-0.792
		c0.953-0.212,1.983-0.313,3.101-0.327c1.671,0.014,3.04,0.303,4.145,0.854c1.106,0.553,1.972,1.318,2.6,2.287
		c0.64,0.966,1.094,2.071,1.356,3.302c0.263,1.242,0.391,2.549,0.391,3.93v8.765c0,1.106,0.6,2.272,2.195,2.374v4.622
		C110.943,39.721,108.444,38.829,107.025,35.965L107.025,35.965z M34.663,33.684c0.419-0.161,0.838-0.399,1.217-0.74
		c0.394-0.326,0.708-0.777,0.958-1.317c0.25-0.553,0.38-1.218,0.393-2.009v-3.341c-0.824-0.013-1.611,0.051-2.385,0.188
		c-0.772,0.126-1.478,0.352-2.109,0.678c-0.629,0.339-1.125,0.792-1.494,1.369c-0.379,0.59-0.563,1.093-0.575,1.996
		c0.012,0.778,0.144,1.433,0.405,1.935c0.25,0.502,0.604,0.866,1.022,1.105s0.89,0.363,1.39,0.351
		C33.851,33.911,34.244,33.836,34.663,33.684L34.663,33.684z M71.256,38.162l-0.049-24.989h6.127l0.063,24.989H71.256L71.256,38.162
		z M140.945,38.428c-0.815-0.152-1.582-0.34-2.287-0.592c-0.702-0.251-1.318-0.539-1.857-0.881l0.742-4.871
		c0.426,0.264,2.12,1.094,3.805,1.445c0.678,0.177,1.355,0.251,2.01,0.264c1.091-0.013,1.894-0.238,2.41-0.691
		c0.526-0.452,0.778-1.067,0.753-1.846c-0.013-0.503-0.127-0.954-0.353-1.345c-0.213-0.376-0.564-0.74-1.079-1.091
		c-0.491-0.339-1.18-0.717-2.034-1.093c-1.47-0.641-2.65-1.356-3.554-2.136c-0.892-0.791-1.556-1.62-1.971-2.498
		c-0.415-0.879-0.641-1.784-0.654-2.714c-0.037-1.519,0.277-2.875,0.944-4.068c0.663-1.193,1.632-2.134,2.886-2.839
		c1.268-0.69,2.764-1.042,4.508-1.053c1.207,0.012,2.311,0.149,3.314,0.414c0.993,0.264,1.849,0.59,2.538,0.992l-0.464,4.809
		c-0.525-0.314-1.759-0.716-2.538-0.979c-0.764-0.276-1.605-0.414-2.498-0.44c-0.943,0.013-1.657,0.252-2.135,0.691
		c-0.477,0.44-0.717,1.017-0.692,1.708c0.001,0.464,0.126,0.866,0.365,1.217c0.228,0.364,0.615,0.704,1.143,1.03
		c0.54,0.339,1.257,0.703,2.16,1.105c1.996,0.879,3.49,1.946,4.47,3.202c0.992,1.269,1.508,2.763,1.558,4.496
		c0.039,1.607-0.289,3.013-0.968,4.193c-0.688,1.193-1.706,2.124-3.063,2.776c-1.344,0.654-3.002,0.989-4.947,1.006
		C142.589,38.625,141.749,38.564,140.945,38.428L140.945,38.428L140.945,38.428z M14.228,38.642
		c-2.298-0.017-4.319-0.443-6.078-1.295c-1.77-0.854-3.252-2.06-4.47-3.641c-1.206-1.57-2.123-3.442-2.738-5.603
		C0.314,25.932,0,23.534,0,20.896c0.013-3.102,0.415-5.827,1.206-8.151c0.778-2.334,1.859-4.281,3.24-5.838
		c1.369-1.569,2.951-2.738,4.745-3.516c1.797-0.778,3.718-1.168,5.754-1.168c1.091,0,2.058,0.075,2.899,0.214
		c2.021,0.401,4.069,0.954,6.167,1.934l-0.528,5.06l-1.848-0.012c-2.034-1.244-4.181-1.482-6.415-1.482
		c-1.27,0-2.45,0.251-3.542,0.753c-1.094,0.515-2.06,1.281-2.889,2.323c-0.828,1.03-1.469,2.35-1.933,3.919
		c-0.466,1.582-0.703,3.453-0.715,5.587c0.012,2.688,0.389,4.935,1.116,6.756c0.742,1.833,1.785,3.215,3.127,4.144
		c1.358,0.942,2.952,1.408,4.797,1.42c2.172-0.039,4.258-0.479,6.254-1.369l1.834-0.037l0.565,5.123
		C20.671,38.214,16.676,38.752,14.228,38.642L14.228,38.642z M116.771,32.537V0l6.255,2.968v28.815
		c0.012,1.683,0.716,2.273,1.882,2.311v4.52C119.319,39.507,116.771,37.096,116.771,32.537L116.771,32.537z M159.711,38.263
		c-0.854-0.427-1.519-0.992-2.01-1.693c-0.489-0.691-0.842-1.444-1.053-2.248c-0.228-0.806-0.365-1.584-0.417-2.348
		c-0.05-0.769-0.074-1.42-0.061-1.986l-0.014-12.093h-2.825v-4.709h2.825l0.014-8.716l6.128,3.319v5.385h4.218v4.846h-4.218v12.244
		c0,1.732,0.238,2.449,0.69,3.128c0.465,0.665,1.934,1.204,3.527,0.764v4.309c-0.325,0.149-0.689,0.238-1.066,0.313
		c-0.715,0.102-1.532,0.152-2.449,0.152C161.67,38.916,160.577,38.69,159.711,38.263L159.711,38.263z M85.813,38.263
		c-0.853-0.427-1.519-0.992-2.008-1.693c-0.49-0.691-0.842-1.444-1.056-2.248c-0.226-0.806-0.364-1.584-0.415-2.348
		c-0.049-0.769-0.076-1.42-0.063-1.986l-0.011-12.093h-2.825v-4.709h2.825l0.011-8.716l6.13,3.319v5.385h4.219v4.846h-4.219v12.244
		c0,1.732,0.237,2.449,0.689,3.128c0.466,0.665,1.936,1.204,3.529,0.764v4.309c-0.327,0.149-0.69,0.238-1.067,0.313
		c-0.716,0.102-1.532,0.152-2.45,0.152C87.774,38.916,86.681,38.69,85.813,38.263L85.813,38.263z M37.514,35.965l-0.075,0.063
		c-0.629,0.993-2.374,2.586-5.741,2.586c-1.33-0.011-2.473-0.362-3.438-1.028c-0.955-0.677-1.695-1.582-2.223-2.7
		c-0.515-1.131-0.778-2.373-0.778-3.729c0-1.596,0.302-2.99,0.866-4.156c0.579-1.182,1.382-2.16,2.438-2.928
		c1.041-0.778,2.284-1.356,3.704-1.733c1.43-0.376,3-0.565,4.709-0.565c0.012-0.828-0.089-1.569-0.304-2.222
		c-0.213-0.641-0.602-1.156-1.167-1.533c-0.552-0.376-1.355-0.577-2.385-0.577c-0.992,0-1.947,0.164-2.853,0.477
		c-0.916,0.314-1.718,0.716-2.422,1.219l-1.081-4.295c0.479-0.326,1.081-0.653,1.807-0.979c0.742-0.313,1.583-0.577,2.525-0.792
		c0.955-0.212,1.985-0.313,3.103-0.327c1.669,0.014,3.038,0.303,4.144,0.854c1.103,0.553,1.969,1.318,2.598,2.287
		c0.641,0.966,1.093,2.071,1.356,3.302c0.264,1.242,0.39,2.549,0.39,3.93v8.765c0,1.106,0.602,2.272,2.196,2.374v4.622
		C41.431,39.721,38.933,38.829,37.514,35.965L37.514,35.965z M53.671,46.049l-6.023-2.825V21.336c0-1.595-0.013-3.065-0.05-4.407
		c-0.025-1.333,0.05-2.977,0-4.107h4.652c0.272,0.54,0.469,1.105,0.592,1.67c1.655-1.268,3.667-1.908,6.05-1.884
		c2.468,0,4.073,0.641,5.368,1.696c1.294,1.042,2.308,2.512,3.05,4.407c0.739,1.897,1.123,4.12,1.135,6.668
		c-0.013,2.273-0.283,4.246-0.815,5.902c-0.53,1.656-1.234,3.014-2.123,4.081c-0.889,1.068-1.889,1.858-2.988,2.372
		c-1.097,0.517-2.234,0.769-3.394,0.769c-2.123,0.061-3.962-0.492-5.456-1.724V46.049L53.671,46.049z"/>
</g>
</svg>
