<?xml version="1.0" encoding="utf-8"?>
<!-- Generator: Adobe Illustrator 16.0.0, SVG Export Plug-In . SVG Version: 6.00 Build 0)  -->
<!DOCTYPE svg PUBLIC "-//W3C//DTD SVG 1.1//EN" "http://www.w3.org/Graphics/SVG/1.1/DTD/svg11.dtd">
<svg version="1.1" id="Layer_1" xmlns="http://www.w3.org/2000/svg" xmlns:xlink="http://www.w3.org/1999/xlink" x="0px" y="0px"
	 width="138px" height="138px" viewBox="0 0 500 500" enable-background="new 0 0 500 500" xml:space="preserve">
<circle fill="#80BC1C" cx="250.517" cy="252.529" r="241.524"/>
<line fill="#FD8469" x1="255.645" y1="302.641" x2="250.519" y2="302.641"/>
<line fill="#FD8469" x1="250.519" y1="397.762" x2="265.893" y2="397.762"/>
<g id="XMLID_8_">
	<path id="XMLID_472_" fill="#324A5E" d="M339.786,328.562l50.284-18.856L250,126.527L109.929,309.705l50.286,18.856
		c-23.961,17.656-39.511,46.067-39.511,78.117h258.592C379.296,374.629,363.747,346.218,339.786,328.562z"/>
	<path id="XMLID_475_" fill="#1B2B3A" d="M339.786,328.562l50.284-18.856L250,126.527v280.151h129.296
		C379.296,374.629,363.747,346.218,339.786,328.562z"/>
	<g id="XMLID_36_">
		<path id="XMLID_1_" fill="#FED8B2" d="M346.973,234.275v-43.099H250v140.08"/>
	</g>
	<path fill="#F4E3C3" d="M150.51,211.168c0-48.752,44.543-88.273,99.489-88.273c54.949,0,99.491,39.521,99.491,88.273
		c0,48.75-44.542,132.419-99.491,132.419C195.052,343.587,150.51,259.918,150.51,211.168z"/>
	<path fill="#FED8B2" d="M349.491,211.168c0-48.752-44.542-88.273-99.488-88.273v220.688
		C304.949,343.58,349.491,259.918,349.491,211.168z"/>
	<path fill="#3F3B3B" d="M352.028,198.593c0-56.321-45.656-101.979-101.979-101.979c-56.32,0-101.978,45.658-101.978,101.979
		c0,22.477,7.287,51.363,19.604,77.985c-2.887-15.327-2.114-30.99-0.6-42.808c64.729-5.078,127.194-35.362,127.194-35.362
		s7.908,14.533,37.562,27.458c2.1,12.063,4.172,31.68,0.563,50.766C344.73,249.997,352.028,221.081,352.028,198.593z"/>
	<path fill="#272525" d="M352.028,198.593c0-56.321-45.656-101.979-101.979-101.979v119.235c26.427-8.818,44.223-17.44,44.223-17.44
		s7.909,14.533,37.562,27.458c2.1,12.063,4.175,31.68,0.569,50.766C344.73,249.997,352.028,221.081,352.028,198.593z"/>
	<path id="XMLID_476_" fill="#1B2B3A" d="M174.577,222.16v22.889c0,17.852,14.473,32.333,32.325,32.333
		c17.852,0,32.324-14.48,32.324-32.333v-10.774h21.546v10.774c0,17.852,14.476,32.333,32.325,32.333
		c17.853,0,32.323-14.48,32.323-32.333V222.16H174.577z"/>
	<polygon id="XMLID_479_" fill="#324A5E" points="361.291,182.768 138.81,182.768 194.431,82.651 250.05,93.774 305.671,82.651 	"/>
	<polygon id="XMLID_481_" fill="#1B2B3A" points="361.291,182.768 250.05,182.768 250.05,93.774 305.671,82.651 	"/>
	<path id="XMLID_482_" fill="#324A5E" d="M383.54,177.205c0,9.216-7.47,16.688-16.688,16.688H133.248
		c-9.215,0-16.687-7.472-16.687-16.688l0,0c0-9.215,7.471-16.686,16.687-16.686h233.604
		C376.07,160.519,383.54,167.99,383.54,177.205L383.54,177.205z"/>
	<path id="XMLID_483_" fill="#1B2B3A" d="M366.853,160.519H250.05v33.374h116.803c9.218,0,16.688-7.472,16.688-16.688
		C383.54,167.99,376.07,160.519,366.853,160.519z"/>
</g>
</svg>
